Coordinates
version=1
nRows=13
nColumns=22
inDegrees=yes

Units are S.I. units (second, meters, Newtons, ...)
If the header above contains a line with 'inDegrees', this indicates whether rotational values are in degrees (yes) or radians (no).

endheader
time	pelvis_tilt	pelvis_list	pelvis_rotation	pelvis_tx	pelvis_ty	pelvis_tz	hip_flexion_r	hip_adduction_r	hip_rotation_r	knee_angle_r	ankle_angle_r	subtalar_angle_r	hip_flexion_l	hip_adduction_l	hip_rotation_l	knee_angle_l	ankle_angle_l	subtalar_angle_l	lumbar_extension	lumbar_bending	lumbar_rotation
      2.79000000	      4.90196543	      4.27011140	    -37.68976960	     -0.10777885	      1.07504630	     -0.31083715	     17.32894963	     -5.20082342	      5.50081313	    -57.96739465	      7.21227267	      0.70160805	      1.42941903	      7.45207626	     -4.40671285	     -9.59744299	     10.01638464	      0.50030148	     -6.26247009	     -8.13021482	     -7.44035700
      2.80000000	      4.81084518	      4.09106805	    -37.71997845	     -0.10125247	      1.07524599	     -0.30766756	     18.11094512	     -4.96696219	      5.11140237	    -57.26779055	      7.75743792	      0.35224723	      0.92868109	      7.33987567	     -4.43973806	     -9.51545413	     10.31549249	      0.41283454	     -6.41813201	     -7.92660359	     -7.75028122
      2.81000000	      4.71457785	      3.92598071	    -37.74606441	     -0.09477987	      1.07535912	     -0.30443235	     18.86201542	     -4.74331576	      4.68975713	    -56.43818329	      8.27103756	      0.05859714	      0.44547125	      7.23185013	     -4.45987879	     -9.43950521	     10.59692640	      0.32102081	     -6.55535950	     -7.73255010	     -8.07024839
      2.82000000	      4.62369426	      3.77148739	    -37.76436186	     -0.08832423	      1.07542633	     -0.30111885	     19.55758384	     -4.54060063	      4.22346068	    -55.46610568	      8.75400338	     -0.24487659	     -0.04218599	      7.13318611	     -4.46359374	     -9.35253615	     10.84070687	      0.21135116	     -6.68020842	     -7.55180076	     -8.39738662
      2.83000000	      4.51295781	      3.63765557	    -37.75832424	     -0.08188999	      1.07538203	     -0.29779774	     20.24125081	     -4.37467392	      3.66407006	    -54.38534649	      9.20299866	     -0.34350959	     -0.47220828	      7.03173730	     -4.49723186	     -9.31676531	     11.13550965	      0.12435028	     -6.77084172	     -7.37251250	     -8.71650149
      2.84000000	      4.40585004	      3.50896884	    -37.74087101	     -0.07546194	      1.07529654	     -0.29440867	     20.86782430	     -4.23562933	      3.03342714	    -53.18532831	      9.62596717	     -0.43783591	     -0.91145479	      6.93389344	     -4.50770583	     -9.26697429	     11.39943267	      0.03300985	     -6.85083308	     -7.19709203	     -9.04734548
      2.85000000	      4.29870451	      3.39393360	    -37.71431716	     -0.06904348	      1.07514941	     -0.29095678	     21.45018720	     -4.13230237	      2.32677441	    -51.88058048	     10.01213436	     -0.49266751	     -1.34102714	      6.84186816	     -4.52496727	     -9.22205752	     11.66978154	     -0.04994007	     -6.91297790	     -7.03118372	     -9.36950026
      2.86000000	      4.19622896	      3.28147060	    -37.67972695	     -0.06262513	      1.07495729	     -0.28744566	     21.97289233	     -4.06223979	      1.52865806	    -50.47319357	     10.35904805	     -0.53662343	     -1.77398900	      6.75106000	     -4.53438222	     -9.17878312	     11.93248545	     -0.12742283	     -6.96957648	     -6.86639739	     -9.67664137
      2.87000000	      4.09470920	      3.17634509	    -37.64669252	     -0.05620155	      1.07470435	     -0.28383408	     22.44125599	     -4.02145625	      0.64682922	    -48.97052738	     10.66366736	     -0.57076567	     -2.20228104	      6.66152866	     -4.54825118	     -9.14490978	     12.20594129	     -0.19743728	     -7.00713029	     -6.70785916	     -9.96643975
      2.88000000	      4.00232475	      3.07059178	    -37.61149802	     -0.04977327	      1.07440468	     -0.28015826	     22.84137816	     -4.01164792	     -0.33171803	    -47.37333443	     10.91426872	     -0.62239787	     -2.63335862	      6.57345184	     -4.56118530	     -9.12448735	     12.47672589	     -0.26333487	     -7.04818488	     -6.55026481	    -10.21339235
      2.89000000	      3.90471461	      2.97479747	    -37.58839854	     -0.04333636	      1.07401522	     -0.27636544	     23.19403541	     -4.01752129	     -1.38533375	    -45.69111077	     11.10599918	     -0.68127686	     -3.04931722	      6.48571538	     -4.59469496	     -9.11864836	     12.77661438	     -0.32582879	     -7.06007689	     -6.39517107	    -10.44783170
      2.90000000	      3.83065197	      2.85546745	    -37.55999643	     -0.03689653	      1.07361483	     -0.27249958	     23.44450959	     -4.03913448	     -2.55275420	    -43.91412311	     11.22096849	     -0.80116370	     -3.48601830	      6.38943344	     -4.60903470	     -9.14531224	     13.07293539	     -0.38801662	     -7.10852109	     -6.23378661	    -10.61630340
      2.91000000	      3.74962113	      2.74376520	    -37.55171446	     -0.03046922	      1.07311354	     -0.26849149	     23.64796464	     -4.05492146	     -3.78191901	    -42.06080404	     11.28467229	     -0.93759555	     -3.90030069	      6.28994761	     -4.66178673	     -9.19880239	     13.39494508	     -0.45179973	     -7.13068650	     -6.07544080	    -10.75732089
